<?xml version="1.0" standalone="no"?><!DOCTYPE svg PUBLIC "-//W3C//DTD SVG 1.1//EN" "http://www.w3.org/Graphics/SVG/1.1/DTD/svg11.dtd"><svg t="1594800580643" class="icon" viewBox="0 0 1024 1024" version="1.1" xmlns="http://www.w3.org/2000/svg" p-id="14429" width="180" height="180" xmlns:xlink="http://www.w3.org/1999/xlink"><defs><style type="text/css"></style></defs><path d="M533.333333 618.666667a21.333333 21.333333 0 1 1-42.666666 0V405.333333a21.333333 21.333333 0 1 1 42.666666 0v213.333334z" fill="#37474F" p-id="14430"></path><path d="M512 362.666667m-21.333333 0a21.333333 21.333333 0 1 0 42.666666 0 21.333333 21.333333 0 1 0-42.666666 0Z" fill="#37474F" p-id="14431"></path><path d="M533.333333 426.666667h128s128 0 128 106.666666-64 149.333333-64 149.333334-57.706667 69.333333-69.354666 49.834666C610.730667 656.682667 533.333333 486.293333 533.333333 469.333333v-42.666666zM492.416 426.666667h-128s-128 0-128 106.666666 64 149.333333 64 149.333334 57.706667 69.333333 69.354667 49.834666c45.248-75.818667 122.645333-246.208 122.645333-263.168v-42.666666z" fill="#2962FF" p-id="14432"></path><path d="M784.896 147.584C789.333333 141.333333 823.658667 128 832 128c-170.666667 0-298.666667 234.666667-298.666667 277.333333v21.333334h234.666667v-42.666667s32-76.416 16.896-236.416zM240.853333 147.584C236.416 141.333333 202.090667 128 193.749333 128c170.666667 0 298.666667 234.666667 298.666667 277.333333v21.333334h-234.666667v-42.666667s-32-76.416-16.896-236.416z" fill="#448AFF" p-id="14433"></path><path d="M832 128c-8.341333 0-42.666667 13.333333-47.104 19.584C800 307.584 768 384 768 384v42.666667h21.333333c64 0 64-42.666667 64-42.666667s8.917333-100.416 30.229334-143.082667C908.437333 191.125333 917.333333 170.666667 917.333333 170.666667s21.333333-42.666667-85.333333-42.666667zM193.749333 128c8.341333 0 42.666667 13.333333 47.104 19.584-15.104 160 16.896 236.416 16.896 236.416v42.666667h-21.333333c-64 0-64-42.666667-64-42.666667s-8.917333-100.416-30.229333-143.082667C117.312 191.125333 108.416 170.666667 108.416 170.666667s-21.333333-42.666667 85.333333-42.666667z" fill="#263238" p-id="14434"></path><path d="M709.333333 406.250667c12.949333-6.314667 24.405333-9.130667 35.669334-11.285334a175.722667 175.722667 0 0 1 32.704-2.581333c10.688 0.128 21.269333 1.216 32.213333 3.2a166.826667 166.826667 0 0 1 35.434667 10.666667c-8.810667 11.541333-20.266667 18.133333-32 22.698666a99.136 99.136 0 0 1-36.245334 6.058667 104.64 104.64 0 0 1-35.733333-6.826667c-11.434667-4.672-22.677333-10.837333-32.042667-21.930666z" fill="#455A64" p-id="14435"></path><path d="M715.562667 362.666667a84.053333 84.053333 0 0 1 31.594666-26.282667 81.045333 81.045333 0 0 1 32.490667-7.850667 80.512 80.512 0 0 1 65.685333 31.488 91.029333 91.029333 0 0 1-32.213333 25.088 80.213333 80.213333 0 0 1-64.32 1.429334A88.405333 88.405333 0 0 1 715.562667 362.666667z" fill="#455A64" p-id="14436"></path><path d="M718.229333 320a91.477333 91.477333 0 0 1 25.813334-36.458667 98.773333 98.773333 0 0 1 33.152-18.752 95.786667 95.786667 0 0 1 38.144-4.629333c13.461333 1.301333 27.797333 4.757333 42.453333 15.424a116.928 116.928 0 0 1-28.693333 32.96 104.746667 104.746667 0 0 1-68.053334 22.186667A103.509333 103.509333 0 0 1 718.229333 320z" fill="#455A64" p-id="14437"></path><path d="M725.333333 256c7.573333-17.173333 17.685333-28.330667 28.48-37.674667a116.736 116.736 0 0 1 75.754667-27.2c14.336 0.362667 29.376 2.709333 45.994667 11.541334a112.938667 112.938667 0 0 1-29.845334 36.117333 121.856 121.856 0 0 1-74.368 26.496A108.885333 108.885333 0 0 1 725.333333 256z" fill="#455A64" p-id="14438"></path><path d="M704 213.333333c4.970667-21.376 17.344-37.333333 31.317333-50.410666a138.752 138.752 0 0 1 49.024-28.501334 137.216 137.216 0 0 1 56.448-6.656c19.136 2.133333 38.250667 7.872 55.210667 21.568-17.450667 12.992-32.746667 20.992-47.637333 28.16-14.869333 7.104-29.162667 12.757333-43.776 17.621334-14.656 4.842667-29.610667 8.832-45.76 12.074666-16.32 3.178667-33.322667 5.525333-54.826667 6.144zM316.416 406.250667c-9.365333 11.114667-20.608 17.258667-32.042667 21.930666a104.042667 104.042667 0 0 1-35.733333 6.826667 99.136 99.136 0 0 1-36.245333-6.058667c-11.733333-4.586667-23.189333-11.157333-32-22.698666a167.189333 167.189333 0 0 1 35.434666-10.666667 187.733333 187.733333 0 0 1 32.213334-3.2 175.722667 175.722667 0 0 1 32.704 2.581333c11.264 2.154667 22.72 4.970667 35.669333 11.285334z" fill="#455A64" p-id="14439"></path><path d="M310.186667 362.666667a87.552 87.552 0 0 1-33.28 23.829333 80.213333 80.213333 0 0 1-64.32-1.429333 90.794667 90.794667 0 0 1-32.213334-25.088 80.64 80.64 0 0 1 65.685334-31.488 81.216 81.216 0 0 1 32.490666 7.850666A84.394667 84.394667 0 0 1 310.186667 362.666667z" fill="#455A64" p-id="14440"></path><path d="M307.52 320a103.509333 103.509333 0 0 1-42.816 10.730667 104.746667 104.746667 0 0 1-68.053333-22.186667 116.928 116.928 0 0 1-28.693334-32.96c14.677333-10.666667 28.992-14.122667 42.453334-15.424a95.786667 95.786667 0 0 1 38.144 4.629333 98.773333 98.773333 0 0 1 33.152 18.752c9.984 8.874667 19.221333 19.669333 25.813333 36.458667z" fill="#455A64" p-id="14441"></path><path d="M300.416 256a109.248 109.248 0 0 1-46.016 9.301333 121.962667 121.962667 0 0 1-74.368-26.496A113.28 113.28 0 0 1 150.186667 202.666667c16.618667-8.832 31.658667-11.178667 45.994666-11.541334a116.736 116.736 0 0 1 75.754667 27.2c10.794667 9.344 20.906667 20.501333 28.48 37.674667z" fill="#455A64" p-id="14442"></path><path d="M321.749333 213.333333a326.570667 326.570667 0 0 1-54.826666-6.122666A378.688 378.688 0 0 1 177.386667 177.493333C162.496 170.325333 147.2 162.325333 129.749333 149.333333c16.96-13.696 36.074667-19.434667 55.232-21.568a136.896 136.896 0 0 1 56.448 6.656c18.005333 6.037333 34.773333 15.616 49.024 28.501334 13.952 13.077333 26.325333 29.034667 31.296 50.410666z" fill="#455A64" p-id="14443"></path><path d="M300.416 682.666667s-64-42.666667-64-149.333334 128-106.666667 128-106.666666h-85.333333s-85.333333 0-85.333334 106.666666 64 192 64 192 42.666667 64 85.333334 42.666667c5.504-2.752 14.997333-16.021333 26.581333-35.392-11.861333 18.986667-69.248-49.941333-69.248-49.941333zM746.666667 426.666667h-85.333334s128 0 128 106.666666-64 149.333333-64 149.333334-57.386667 68.928-69.248 49.941333c11.584 19.370667 21.077333 32.64 26.581334 35.392 42.666667 21.333333 85.333333-42.666667 85.333333-42.666667s64-85.333333 64-192-85.333333-106.666667-85.333333-106.666666zM886.634667 820.032c12.885333 12.117333 12.501333 32.746667 0 45.248s-32.853333 12.608-45.248 0c-13.717333-13.952-16.704-66.282667-16.704-66.282667s46.314667 6.336 61.952 21.034667z" fill="#37474F" p-id="14444"></path><path d="M832 845.674667c-12.330667-43.328-80-96.661333-108.992-78.997334-18.325333 4.992 81.664-129.344 76.992-97.002666-25.344 45.994667 41.344 127.338667 77.333333 144.341333-3.669333 9.984-32.661333 33.984-45.333333 31.658667zM746.666667 554.666667c8.96-11.989333 18.389333-16.725333 27.498666-18.965334 9.109333-1.962667 18.154667-0.64 26.282667 3.818667 8.085333 4.394667 15.488 12.288 19.093333 23.146667 3.477333 10.624 2.709333 24.896-8.874666 34.666666-14.698667-3.413333-22.336-1.301333-28.096-0.533333-5.589333 0.896-9.365333 0.853333-13.098667-1.301333-3.669333-2.090667-7.210667-5.973333-10.944-12.138667-3.754667-6.421333-7.466667-14.570667-11.861333-28.693333z" fill="#37474F" p-id="14445"></path><path d="M725.333333 597.333333c13.781333-6.890667 24.32-8.192 33.770667-7.786666 9.322667 0.618667 17.301333 3.477333 24 8.213333 6.698667 4.757333 12.138667 11.477333 15.872 20.352 3.456 9.024 6.016 20.053333 2.346667 35.221333-14.848 4.053333-24.512 5.12-33.408 4.373334-8.682667-0.853333-15.914667-3.477333-22.016-7.893334s-11.114667-10.517333-14.826667-18.709333c-3.626667-8.426667-6.250667-18.389333-5.738667-33.770667z" fill="#37474F" p-id="14446"></path><path d="M704 640c15.530667-1.472 26.005333 0.917333 34.944 4.458667 8.725333 3.712 15.488 8.938667 20.501333 15.488 5.034667 6.528 8.298667 14.4 9.557334 23.808 1.088 9.536 0.597333 20.266667-4.992 34.922666-15.594667 1.514667-26.090667-0.853333-35.008-4.416a48.768 48.768 0 0 1-20.437334-15.530666 49.792 49.792 0 0 1-9.493333-23.850667c-1.066667-9.557333-0.597333-20.288 4.928-34.88z" fill="#37474F" p-id="14447"></path><path d="M661.333333 661.333333c14.208 7.573333 22.954667 13.077333 30.186667 18.453334 7.04 5.290667 11.989333 10.048 15.658667 15.168 3.733333 5.141333 5.994667 10.794667 8.469333 18.538666L725.333333 746.666667c-13.205333 9.536-27.349333 10.410667-39.914666 7.04a55.914667 55.914667 0 0 1-30.464-21.781334 56.554667 56.554667 0 0 1-10.389334-34.517333c0.725333-12.224 4.672-25.002667 16.768-36.074667zM139.114667 820.032c-12.885333 12.117333-12.501333 32.746667 0 45.248s32.853333 12.608 45.248 0c13.717333-13.952 16.704-66.282667 16.704-66.282667s-46.314667 6.336-61.952 21.034667z" fill="#37474F" p-id="14448"></path><path d="M193.749333 845.674667c12.330667-43.328 80-96.661333 108.992-78.997334 18.325333 4.992-81.664-129.344-76.992-97.002666 25.344 45.994667-41.344 127.338667-77.333333 144.341333 3.669333 9.984 32.661333 33.984 45.333333 31.658667zM279.082667 554.666667c-4.394667 14.122667-8.106667 22.272-11.861334 28.693333-3.733333 6.165333-7.253333 10.069333-10.944 12.138667-3.712 2.154667-7.530667 2.197333-13.077333 1.301333-5.781333-0.746667-13.397333-2.88-28.117333 0.533333-11.584-9.770667-12.352-24.042667-8.874667-34.666666a40.96 40.96 0 0 1 19.093333-23.146667 37.44 37.44 0 0 1 26.282667-3.818667c9.109333 2.24 18.538667 6.976 27.498667 18.965334z" fill="#37474F" p-id="14449"></path><path d="M300.416 597.333333c0.512 15.381333-2.112 25.344-5.717333 33.770667-3.754667 8.192-8.746667 14.293333-14.848 18.709333s-13.333333 7.04-22.016 7.893334c-8.896 0.746667-18.56-0.32-33.408-4.373334a56.042667 56.042667 0 0 1 2.346666-35.221333c3.733333-8.874667 9.173333-15.594667 15.872-20.352a46.293333 46.293333 0 0 1 24-8.213333c9.450667-0.405333 19.989333 0.896 33.770667 7.786666z" fill="#37474F" p-id="14450"></path><path d="M321.749333 640c5.525333 14.592 5.994667 25.322667 4.928 34.88-1.28 9.386667-4.522667 17.28-9.493333 23.850667a48.64 48.64 0 0 1-20.437333 15.530666c-8.917333 3.562667-19.413333 5.930667-35.008 4.416-5.589333-14.656-6.08-25.365333-5.013334-34.922666 1.28-9.408 4.522667-17.301333 9.578667-23.808 5.034667-6.549333 11.776-11.776 20.501333-15.488 8.96-3.541333 19.413333-5.930667 34.944-4.458667z" fill="#37474F" p-id="14451"></path><path d="M364.416 661.333333c12.096 11.072 16.042667 23.850667 16.768 36.053334 0.426667 12.224-3.2 24.362667-10.389333 34.517333a55.765333 55.765333 0 0 1-30.442667 21.781333c-12.565333 3.370667-26.709333 2.496-39.914667-7.04l9.685334-33.173333c2.453333-7.744 4.736-13.397333 8.448-18.538667 3.690667-5.12 8.64-9.877333 15.658666-15.168 7.232-5.354667 16-10.858667 30.186667-18.432zM745.856 450.304a164.821333 164.821333 0 0 0-48.490667-21.568 222.272 222.272 0 0 0-10.090666-2.069333H640c9.386667 19.285333 20.586667 33.152 32.469333 45.632a231.850667 231.850667 0 0 0 38.272 31.509333 238.506667 238.506667 0 0 0 43.498667 22.613333 210.133333 210.133333 0 0 0 53.76 13.589334c-2.666667-21.461333-11.904-38.549333-22.805333-53.312a158.549333 158.549333 0 0 0-39.338667-36.394667zM328.405333 428.757333a163.776 163.776 0 0 0-48.490666 21.568 157.802667 157.802667 0 0 0-39.338667 36.394667c-10.944 14.762667-20.16 31.850667-22.826667 53.312a209.962667 209.962667 0 0 0 53.738667-13.589333 236.714667 236.714667 0 0 0 81.792-54.122667c11.904-12.48 23.104-26.346667 32.469333-45.632h-47.253333a172.373333 172.373333 0 0 0-10.090667 2.069333z" fill="#37474F" p-id="14452"></path></svg>